<svg xmlns="http://www.w3.org/2000/svg"><symbol id="habitat-1" viewBox="0 0 256 256"><path d="M128 0l109.1 63v126L128 252 18.9 189V63L128 0z"/><path fill="#fff" d="M66.3 177.1l-4.7-6.8a2.3 2.3 0 0 1 .2-2.5L79 147.5h-8.5a1.9 1.9 0 0 1-2.1-2.1v-14.9a1.9 1.9 0 0 1 2.1-2h12a56.3 56.3 0 0 1-2.3-15.7 49.1 49.1 0 0 1 49-48.9c26.7 0 48.9 22.2 48.9 48.9a49.8 49.8 0 0 1-2.3 15.7h12a2 2 0 0 1 2.1 2v14.9a2 2 0 0 1-2.1 2.1h-10.6l17 20.3a2.3 2.3 0 0 1 0 2.5l-4.7 6.8a2.3 2.3 0 0 1-2.7.6l-10-5.1H79l-10 5.1a2.4 2.4 0 0 1-2.7-.6zm31.5-29.6H84.1L65.9 169l2.9 4.2 35-18.4zm-25.3-14.9v10.8h113.2v-10.8zm14.3-4.1h84.7a52 52 0 0 0 2.4-15.7 44.8 44.8 0 0 0-89.6 0c0 5.3.4 10.9 2.5 15.7zm19.9 29.6L87 168.4h28.2zm-3.5-10.6l17.3 20.9h14.9l17.4-20.9zm46.1 10.6l-8.5 10.3H169zm22.6-10.6h-13.7l-6.2 7.3 35.2 18.4 2.9-4z"/></symbol><symbol id="habitat-3" viewBox="0 0 256 256"><path d="M130 4.4l107 61.8v123.6l-107 61.8-107-61.8V66.2L130 4.4z"/><path fill="#fff" d="M71.4 173.7a2 2 0 0 1-2.1-2.1v-24.5H42.5a2.1 2.1 0 0 1 0-4.1h15.3v-13.2a1.9 1.9 0 0 1 2-2h7.9a64.4 64.4 0 0 1 62.1-49.3c.2-.2.4-.2.8 0 30 .2 55 21.3 61.7 49.3h7.9a1.9 1.9 0 0 1 2 2V143h15.3a2.1 2.1 0 0 1 0 4.1h-26.8v24.5a2 2 0 0 1-2.1 2.1zm-9.6-41.8V143h136.4v-11.1zm64.1-49.2C100 84.4 78.3 103.2 72 127.8h21.7zm-52.5 64.4v22.5H128v-22.5zM128 86.8l-29.3 41H128zm4-4.3v45.3h56a60.4 60.4 0 0 0-56-45.3zm0 64.6v22.5h9.2v-22.5zm13.2 0v22.5h41.4v-22.5z"/></symbol><symbol id="habitat-2" viewBox="0 0 256 256"><path d="M128 2l107.4 62v124L128 250 20.6 188V64L128 2z"/><path fill="#fff" d="M65.7 171.8a2.2 2.2 0 0 1-2.1-2 2.3 2.3 0 0 1 2.1-2.1h10.2v-12.8H65.7a2 2 0 0 1-2.1-2v-40.1a2 2 0 0 1 2.1-2.1h13.4c1-28.9 22.6-44.8 48.9-44.8s47.9 15.9 48.9 44.8h13.4a2 2 0 0 1 2.1 2.1v40.1a2 2 0 0 1-2.1 2h-10.2v12.8h10.2a2.3 2.3 0 0 1 2.1 2.1 2.2 2.2 0 0 1-2.1 2zm2-57v36h120.6v-36zm12.2 40.1v12.8H93v-12.8zm3.3-44.2h89.6c-1-26.2-21-40.7-44.8-40.7s-43.8 14.5-44.8 40.7zM97 154.9v12.8h20.4v-12.8zm24.5 0v12.8h13v-12.8zm55.2-13.8H127a2.3 2.3 0 0 1-2.1-2.1 2.2 2.2 0 0 1 2.1-2h49.7a2.2 2.2 0 0 1 2 2 2.2 2.2 0 0 1-2 2.1zm-38.1 13.8v12.8H159v-12.8zm24.4 0v12.8h13.1v-12.8z"/></symbol></svg>